<mxfile host="app.diagrams.net" agent="Mozilla/5.0 (Windows NT 10.0; Win64; x64) AppleWebKit/537.36 (KHTML, like Gecko) Chrome/141.0.0.0 Safari/537.36 Edg/141.0.0.0" version="28.2.8">
  <diagram name="페이지-1" id="_Ow8sb25zV9HUHV_xPIu">
    <mxGraphModel dx="1628" dy="606" grid="1" gridSize="10" guides="1" tooltips="1" connect="1" arrows="1" fold="1" page="1" pageScale="1" pageWidth="690" pageHeight="980" math="0" shadow="0">
      <root>
        <mxCell id="0" />
        <mxCell id="1" parent="0" />
        <mxCell id="-bwylKkLOB3QHr3YSKQO-12" value="" style="edgeStyle=orthogonalEdgeStyle;rounded=0;orthogonalLoop=1;jettySize=auto;html=1;" edge="1" parent="1" source="-bwylKkLOB3QHr3YSKQO-1" target="-bwylKkLOB3QHr3YSKQO-2">
          <mxGeometry relative="1" as="geometry" />
        </mxCell>
        <mxCell id="-bwylKkLOB3QHr3YSKQO-1" value="&lt;span style=&quot;&quot;&gt;시작&lt;/span&gt;" style="ellipse;whiteSpace=wrap;html=1;labelBackgroundColor=none;" vertex="1" parent="1">
          <mxGeometry x="80" width="101" height="60" as="geometry" />
        </mxCell>
        <mxCell id="-bwylKkLOB3QHr3YSKQO-28" value="" style="edgeStyle=orthogonalEdgeStyle;rounded=0;orthogonalLoop=1;jettySize=auto;html=1;" edge="1" parent="1" source="-bwylKkLOB3QHr3YSKQO-2" target="-bwylKkLOB3QHr3YSKQO-25">
          <mxGeometry relative="1" as="geometry" />
        </mxCell>
        <mxCell id="-bwylKkLOB3QHr3YSKQO-2" value="main()함수 시작" style="shape=parallelogram;perimeter=parallelogramPerimeter;whiteSpace=wrap;html=1;fixedSize=1;" vertex="1" parent="1">
          <mxGeometry x="50" y="100" width="115.25" height="50" as="geometry" />
        </mxCell>
        <mxCell id="-bwylKkLOB3QHr3YSKQO-14" value="" style="edgeStyle=orthogonalEdgeStyle;rounded=0;orthogonalLoop=1;jettySize=auto;html=1;" edge="1" parent="1" source="-bwylKkLOB3QHr3YSKQO-3" target="-bwylKkLOB3QHr3YSKQO-5">
          <mxGeometry relative="1" as="geometry" />
        </mxCell>
        <mxCell id="-bwylKkLOB3QHr3YSKQO-35" style="edgeStyle=orthogonalEdgeStyle;rounded=0;orthogonalLoop=1;jettySize=auto;html=1;" edge="1" parent="1" source="-bwylKkLOB3QHr3YSKQO-3" target="-bwylKkLOB3QHr3YSKQO-4">
          <mxGeometry relative="1" as="geometry" />
        </mxCell>
        <mxCell id="-bwylKkLOB3QHr3YSKQO-3" value="파일 존재 여부" style="rhombus;whiteSpace=wrap;html=1;" vertex="1" parent="1">
          <mxGeometry x="34.75" y="260" width="160" height="50" as="geometry" />
        </mxCell>
        <mxCell id="-bwylKkLOB3QHr3YSKQO-16" value="" style="edgeStyle=orthogonalEdgeStyle;rounded=0;orthogonalLoop=1;jettySize=auto;html=1;" edge="1" parent="1" source="-bwylKkLOB3QHr3YSKQO-4" target="-bwylKkLOB3QHr3YSKQO-15">
          <mxGeometry relative="1" as="geometry" />
        </mxCell>
        <mxCell id="-bwylKkLOB3QHr3YSKQO-4" value="no_file() 함수&lt;div&gt;호출 (void형)&lt;/div&gt;" style="shape=process;whiteSpace=wrap;html=1;backgroundOutline=1;" vertex="1" parent="1">
          <mxGeometry x="240" y="250" width="100" height="50" as="geometry" />
        </mxCell>
        <mxCell id="-bwylKkLOB3QHr3YSKQO-37" style="edgeStyle=orthogonalEdgeStyle;rounded=0;orthogonalLoop=1;jettySize=auto;html=1;entryX=0.5;entryY=0;entryDx=0;entryDy=0;" edge="1" parent="1" source="-bwylKkLOB3QHr3YSKQO-5" target="-bwylKkLOB3QHr3YSKQO-36">
          <mxGeometry relative="1" as="geometry" />
        </mxCell>
        <mxCell id="-bwylKkLOB3QHr3YSKQO-5" value="yes_file() 함수&lt;div&gt;호출&lt;/div&gt;" style="shape=process;whiteSpace=wrap;html=1;backgroundOutline=1;" vertex="1" parent="1">
          <mxGeometry x="59.5" y="340" width="110.5" height="50" as="geometry" />
        </mxCell>
        <mxCell id="-bwylKkLOB3QHr3YSKQO-15" value="&quot;(파일 이름)은 존재하지 않습니다&quot;&lt;div&gt;출력&lt;/div&gt;" style="shape=parallelogram;perimeter=parallelogramPerimeter;whiteSpace=wrap;html=1;fixedSize=1;" vertex="1" parent="1">
          <mxGeometry x="230" y="335" width="130" height="60" as="geometry" />
        </mxCell>
        <mxCell id="-bwylKkLOB3QHr3YSKQO-20" value="" style="edgeStyle=orthogonalEdgeStyle;rounded=0;orthogonalLoop=1;jettySize=auto;html=1;" edge="1" parent="1" source="-bwylKkLOB3QHr3YSKQO-17" target="-bwylKkLOB3QHr3YSKQO-19">
          <mxGeometry relative="1" as="geometry" />
        </mxCell>
        <mxCell id="-bwylKkLOB3QHr3YSKQO-22" value="" style="edgeStyle=orthogonalEdgeStyle;rounded=0;orthogonalLoop=1;jettySize=auto;html=1;" edge="1" parent="1" source="-bwylKkLOB3QHr3YSKQO-17" target="-bwylKkLOB3QHr3YSKQO-21">
          <mxGeometry relative="1" as="geometry" />
        </mxCell>
        <mxCell id="-bwylKkLOB3QHr3YSKQO-17" value="디렉토리 존재 여부" style="rhombus;whiteSpace=wrap;html=1;" vertex="1" parent="1">
          <mxGeometry x="55.25" y="530" width="100" height="80" as="geometry" />
        </mxCell>
        <mxCell id="-bwylKkLOB3QHr3YSKQO-24" value="" style="edgeStyle=orthogonalEdgeStyle;rounded=0;orthogonalLoop=1;jettySize=auto;html=1;" edge="1" parent="1" source="-bwylKkLOB3QHr3YSKQO-19" target="-bwylKkLOB3QHr3YSKQO-23">
          <mxGeometry relative="1" as="geometry" />
        </mxCell>
        <mxCell id="-bwylKkLOB3QHr3YSKQO-19" value="no_directory()&amp;nbsp;&lt;div&gt;함수 호출 (void 형)&lt;/div&gt;" style="shape=process;whiteSpace=wrap;html=1;backgroundOutline=1;" vertex="1" parent="1">
          <mxGeometry x="205" y="495" width="120" height="60" as="geometry" />
        </mxCell>
        <mxCell id="-bwylKkLOB3QHr3YSKQO-21" value="yes_directory()&lt;div&gt;함수 호출&lt;/div&gt;" style="shape=process;whiteSpace=wrap;html=1;backgroundOutline=1;" vertex="1" parent="1">
          <mxGeometry x="50" y="650" width="120" height="60" as="geometry" />
        </mxCell>
        <mxCell id="-bwylKkLOB3QHr3YSKQO-23" value="&quot;(디렉토리 이름)은 존재하지 않습니다&quot;&lt;div&gt;출력&lt;/div&gt;" style="shape=parallelogram;perimeter=parallelogramPerimeter;whiteSpace=wrap;html=1;fixedSize=1;" vertex="1" parent="1">
          <mxGeometry x="220" y="600" width="150" height="60" as="geometry" />
        </mxCell>
        <mxCell id="-bwylKkLOB3QHr3YSKQO-34" style="edgeStyle=orthogonalEdgeStyle;rounded=0;orthogonalLoop=1;jettySize=auto;html=1;" edge="1" parent="1" source="-bwylKkLOB3QHr3YSKQO-25" target="-bwylKkLOB3QHr3YSKQO-3">
          <mxGeometry relative="1" as="geometry" />
        </mxCell>
        <mxCell id="-bwylKkLOB3QHr3YSKQO-25" value="n개 파일 입력경로만큼 반복문" style="rhombus;whiteSpace=wrap;html=1;" vertex="1" parent="1">
          <mxGeometry x="45.25" y="160" width="167.13" height="60" as="geometry" />
        </mxCell>
        <mxCell id="-bwylKkLOB3QHr3YSKQO-38" style="edgeStyle=orthogonalEdgeStyle;rounded=0;orthogonalLoop=1;jettySize=auto;html=1;" edge="1" parent="1" source="-bwylKkLOB3QHr3YSKQO-36" target="-bwylKkLOB3QHr3YSKQO-17">
          <mxGeometry relative="1" as="geometry" />
        </mxCell>
        <mxCell id="-bwylKkLOB3QHr3YSKQO-36" value="n개 디렉토리 입력 경로만큼 반복문" style="rhombus;whiteSpace=wrap;html=1;" vertex="1" parent="1">
          <mxGeometry x="15" y="430" width="190" height="65" as="geometry" />
        </mxCell>
        <mxCell id="-bwylKkLOB3QHr3YSKQO-42" style="edgeStyle=orthogonalEdgeStyle;rounded=0;orthogonalLoop=1;jettySize=auto;html=1;entryX=0;entryY=0.75;entryDx=0;entryDy=0;" edge="1" parent="1" source="-bwylKkLOB3QHr3YSKQO-39" target="-bwylKkLOB3QHr3YSKQO-41">
          <mxGeometry relative="1" as="geometry" />
        </mxCell>
        <mxCell id="-bwylKkLOB3QHr3YSKQO-54" style="edgeStyle=orthogonalEdgeStyle;rounded=0;orthogonalLoop=1;jettySize=auto;html=1;" edge="1" parent="1" source="-bwylKkLOB3QHr3YSKQO-39" target="-bwylKkLOB3QHr3YSKQO-53">
          <mxGeometry relative="1" as="geometry" />
        </mxCell>
        <mxCell id="-bwylKkLOB3QHr3YSKQO-39" value="n개 백업위치 반복문으로 백업 위치 받기" style="rhombus;whiteSpace=wrap;html=1;" vertex="1" parent="1">
          <mxGeometry x="10" y="860" width="160" height="80" as="geometry" />
        </mxCell>
        <mxCell id="-bwylKkLOB3QHr3YSKQO-41" value="no_backup()&lt;div&gt;함수 호출 (void형)&lt;/div&gt;" style="shape=process;whiteSpace=wrap;html=1;backgroundOutline=1;" vertex="1" parent="1">
          <mxGeometry x="212.38" y="740" width="120" height="60" as="geometry" />
        </mxCell>
        <mxCell id="-bwylKkLOB3QHr3YSKQO-47" style="edgeStyle=orthogonalEdgeStyle;rounded=0;orthogonalLoop=1;jettySize=auto;html=1;" edge="1" parent="1" source="-bwylKkLOB3QHr3YSKQO-43" target="-bwylKkLOB3QHr3YSKQO-46">
          <mxGeometry relative="1" as="geometry" />
        </mxCell>
        <mxCell id="-bwylKkLOB3QHr3YSKQO-43" value="&quot;(백업할 위치 경로)는 존재하지 않습니다&quot; 출력" style="shape=parallelogram;perimeter=parallelogramPerimeter;whiteSpace=wrap;html=1;fixedSize=1;" vertex="1" parent="1">
          <mxGeometry x="230" y="840" width="150" height="60" as="geometry" />
        </mxCell>
        <mxCell id="-bwylKkLOB3QHr3YSKQO-45" style="edgeStyle=orthogonalEdgeStyle;rounded=0;orthogonalLoop=1;jettySize=auto;html=1;entryX=0.39;entryY=0.058;entryDx=0;entryDy=0;entryPerimeter=0;" edge="1" parent="1" source="-bwylKkLOB3QHr3YSKQO-41" target="-bwylKkLOB3QHr3YSKQO-43">
          <mxGeometry relative="1" as="geometry" />
        </mxCell>
        <mxCell id="-bwylKkLOB3QHr3YSKQO-46" value="y / n 입력 여부" style="rhombus;whiteSpace=wrap;html=1;" vertex="1" parent="1">
          <mxGeometry x="250" y="940" width="120" height="80" as="geometry" />
        </mxCell>
        <mxCell id="-bwylKkLOB3QHr3YSKQO-48" value="y_make() 함수&lt;div&gt;호출 (void형)&lt;/div&gt;" style="shape=process;whiteSpace=wrap;html=1;backgroundOutline=1;" vertex="1" parent="1">
          <mxGeometry x="420" y="950" width="120" height="60" as="geometry" />
        </mxCell>
        <mxCell id="-bwylKkLOB3QHr3YSKQO-49" style="edgeStyle=orthogonalEdgeStyle;rounded=0;orthogonalLoop=1;jettySize=auto;html=1;entryX=0.058;entryY=0.558;entryDx=0;entryDy=0;entryPerimeter=0;" edge="1" parent="1" source="-bwylKkLOB3QHr3YSKQO-46" target="-bwylKkLOB3QHr3YSKQO-48">
          <mxGeometry relative="1" as="geometry" />
        </mxCell>
        <mxCell id="-bwylKkLOB3QHr3YSKQO-81" style="edgeStyle=orthogonalEdgeStyle;rounded=0;orthogonalLoop=1;jettySize=auto;html=1;" edge="1" parent="1" source="-bwylKkLOB3QHr3YSKQO-50" target="-bwylKkLOB3QHr3YSKQO-53">
          <mxGeometry relative="1" as="geometry">
            <mxPoint x="640" y="1070" as="targetPoint" />
            <Array as="points">
              <mxPoint x="640" y="1040" />
              <mxPoint x="540" y="1040" />
              <mxPoint x="540" y="1070" />
            </Array>
          </mxGeometry>
        </mxCell>
        <mxCell id="-bwylKkLOB3QHr3YSKQO-50" value="경로에 해당하는&lt;div&gt;내용 생성&lt;/div&gt;" style="shape=parallelogram;perimeter=parallelogramPerimeter;whiteSpace=wrap;html=1;fixedSize=1;" vertex="1" parent="1">
          <mxGeometry x="580" y="950" width="120" height="60" as="geometry" />
        </mxCell>
        <mxCell id="-bwylKkLOB3QHr3YSKQO-51" style="edgeStyle=orthogonalEdgeStyle;rounded=0;orthogonalLoop=1;jettySize=auto;html=1;entryX=0.054;entryY=0.633;entryDx=0;entryDy=0;entryPerimeter=0;" edge="1" parent="1" source="-bwylKkLOB3QHr3YSKQO-48" target="-bwylKkLOB3QHr3YSKQO-50">
          <mxGeometry relative="1" as="geometry" />
        </mxCell>
        <mxCell id="-bwylKkLOB3QHr3YSKQO-52" value="&quot;백업할 위치를 절대 경로로 입력 해주세요&quot; 출력" style="shape=parallelogram;perimeter=parallelogramPerimeter;whiteSpace=wrap;html=1;fixedSize=1;" vertex="1" parent="1">
          <mxGeometry x="-100" y="740" width="244.75" height="60" as="geometry" />
        </mxCell>
        <mxCell id="-bwylKkLOB3QHr3YSKQO-67" style="edgeStyle=orthogonalEdgeStyle;rounded=0;orthogonalLoop=1;jettySize=auto;html=1;entryX=0.5;entryY=0;entryDx=0;entryDy=0;" edge="1" parent="1" source="-bwylKkLOB3QHr3YSKQO-53" target="-bwylKkLOB3QHr3YSKQO-57">
          <mxGeometry relative="1" as="geometry" />
        </mxCell>
        <mxCell id="-bwylKkLOB3QHr3YSKQO-53" value="yes_backup()&lt;div&gt;함수 호출 (void형)&lt;/div&gt;" style="shape=process;whiteSpace=wrap;html=1;backgroundOutline=1;" vertex="1" parent="1">
          <mxGeometry x="10" y="1030" width="120" height="60" as="geometry" />
        </mxCell>
        <mxCell id="-bwylKkLOB3QHr3YSKQO-69" style="edgeStyle=orthogonalEdgeStyle;rounded=0;orthogonalLoop=1;jettySize=auto;html=1;entryX=0.5;entryY=0;entryDx=0;entryDy=0;" edge="1" parent="1" source="-bwylKkLOB3QHr3YSKQO-57" target="-bwylKkLOB3QHr3YSKQO-68">
          <mxGeometry relative="1" as="geometry" />
        </mxCell>
        <mxCell id="-bwylKkLOB3QHr3YSKQO-57" value="where_backup() 함수 호출 (void형)" style="shape=process;whiteSpace=wrap;html=1;backgroundOutline=1;" vertex="1" parent="1">
          <mxGeometry x="14.995" y="1150" width="120" height="60" as="geometry" />
        </mxCell>
        <mxCell id="-bwylKkLOB3QHr3YSKQO-59" style="edgeStyle=orthogonalEdgeStyle;rounded=0;orthogonalLoop=1;jettySize=auto;html=1;entryX=0.715;entryY=0.05;entryDx=0;entryDy=0;entryPerimeter=0;" edge="1" parent="1" source="-bwylKkLOB3QHr3YSKQO-21" target="-bwylKkLOB3QHr3YSKQO-52">
          <mxGeometry relative="1" as="geometry" />
        </mxCell>
        <mxCell id="-bwylKkLOB3QHr3YSKQO-65" style="edgeStyle=orthogonalEdgeStyle;rounded=0;orthogonalLoop=1;jettySize=auto;html=1;entryX=0.425;entryY=0.144;entryDx=0;entryDy=0;entryPerimeter=0;" edge="1" parent="1" source="-bwylKkLOB3QHr3YSKQO-52" target="-bwylKkLOB3QHr3YSKQO-39">
          <mxGeometry relative="1" as="geometry" />
        </mxCell>
        <mxCell id="-bwylKkLOB3QHr3YSKQO-66" style="edgeStyle=orthogonalEdgeStyle;rounded=0;orthogonalLoop=1;jettySize=auto;html=1;entryX=0.341;entryY=0.917;entryDx=0;entryDy=0;entryPerimeter=0;" edge="1" parent="1" source="-bwylKkLOB3QHr3YSKQO-46" target="-bwylKkLOB3QHr3YSKQO-52">
          <mxGeometry relative="1" as="geometry" />
        </mxCell>
        <mxCell id="-bwylKkLOB3QHr3YSKQO-68" value="&quot;복사를 시작합니다... &quot;&lt;div&gt;출력&lt;/div&gt;" style="shape=parallelogram;perimeter=parallelogramPerimeter;whiteSpace=wrap;html=1;fixedSize=1;" vertex="1" parent="1">
          <mxGeometry x="14.99" y="1280" width="155.01" height="60" as="geometry" />
        </mxCell>
        <mxCell id="-bwylKkLOB3QHr3YSKQO-70" value="copy_file() 함수 호출" style="shape=process;whiteSpace=wrap;html=1;backgroundOutline=1;" vertex="1" parent="1">
          <mxGeometry x="250" y="1380" width="120" height="60" as="geometry" />
        </mxCell>
        <mxCell id="-bwylKkLOB3QHr3YSKQO-71" value="copy_directory() 함수 호출" style="shape=process;whiteSpace=wrap;html=1;backgroundOutline=1;" vertex="1" parent="1">
          <mxGeometry x="14.990000000000009" y="1480" width="120" height="60" as="geometry" />
        </mxCell>
        <mxCell id="-bwylKkLOB3QHr3YSKQO-74" style="edgeStyle=orthogonalEdgeStyle;rounded=0;orthogonalLoop=1;jettySize=auto;html=1;entryX=0;entryY=0.5;entryDx=0;entryDy=0;" edge="1" parent="1" source="-bwylKkLOB3QHr3YSKQO-72" target="-bwylKkLOB3QHr3YSKQO-70">
          <mxGeometry relative="1" as="geometry" />
        </mxCell>
        <mxCell id="-bwylKkLOB3QHr3YSKQO-75" style="edgeStyle=orthogonalEdgeStyle;rounded=0;orthogonalLoop=1;jettySize=auto;html=1;" edge="1" parent="1" source="-bwylKkLOB3QHr3YSKQO-72" target="-bwylKkLOB3QHr3YSKQO-71">
          <mxGeometry relative="1" as="geometry" />
        </mxCell>
        <mxCell id="-bwylKkLOB3QHr3YSKQO-72" value="일반 파일 / 디렉토리 여부&lt;div&gt;확인&lt;/div&gt;" style="rhombus;whiteSpace=wrap;html=1;" vertex="1" parent="1">
          <mxGeometry y="1370" width="160" height="80" as="geometry" />
        </mxCell>
        <mxCell id="-bwylKkLOB3QHr3YSKQO-73" style="edgeStyle=orthogonalEdgeStyle;rounded=0;orthogonalLoop=1;jettySize=auto;html=1;entryX=0.563;entryY=0.15;entryDx=0;entryDy=0;entryPerimeter=0;" edge="1" parent="1" source="-bwylKkLOB3QHr3YSKQO-68" target="-bwylKkLOB3QHr3YSKQO-72">
          <mxGeometry relative="1" as="geometry" />
        </mxCell>
        <mxCell id="-bwylKkLOB3QHr3YSKQO-84" style="edgeStyle=orthogonalEdgeStyle;rounded=0;orthogonalLoop=1;jettySize=auto;html=1;" edge="1" parent="1" source="-bwylKkLOB3QHr3YSKQO-77" target="-bwylKkLOB3QHr3YSKQO-83">
          <mxGeometry relative="1" as="geometry" />
        </mxCell>
        <mxCell id="-bwylKkLOB3QHr3YSKQO-77" value="디렉토리 복사 후 리턴" style="shape=parallelogram;perimeter=parallelogramPerimeter;whiteSpace=wrap;html=1;fixedSize=1;" vertex="1" parent="1">
          <mxGeometry x="24.75" y="1600" width="135.25" height="60" as="geometry" />
        </mxCell>
        <mxCell id="-bwylKkLOB3QHr3YSKQO-85" style="edgeStyle=orthogonalEdgeStyle;rounded=0;orthogonalLoop=1;jettySize=auto;html=1;" edge="1" parent="1" source="-bwylKkLOB3QHr3YSKQO-78" target="-bwylKkLOB3QHr3YSKQO-83">
          <mxGeometry relative="1" as="geometry" />
        </mxCell>
        <mxCell id="-bwylKkLOB3QHr3YSKQO-78" value="파일 복사 후 리턴" style="shape=parallelogram;perimeter=parallelogramPerimeter;whiteSpace=wrap;html=1;fixedSize=1;" vertex="1" parent="1">
          <mxGeometry x="260" y="1480" width="120" height="60" as="geometry" />
        </mxCell>
        <mxCell id="-bwylKkLOB3QHr3YSKQO-79" style="edgeStyle=orthogonalEdgeStyle;rounded=0;orthogonalLoop=1;jettySize=auto;html=1;entryX=0.42;entryY=0.117;entryDx=0;entryDy=0;entryPerimeter=0;" edge="1" parent="1" source="-bwylKkLOB3QHr3YSKQO-71" target="-bwylKkLOB3QHr3YSKQO-77">
          <mxGeometry relative="1" as="geometry" />
        </mxCell>
        <mxCell id="-bwylKkLOB3QHr3YSKQO-80" style="edgeStyle=orthogonalEdgeStyle;rounded=0;orthogonalLoop=1;jettySize=auto;html=1;entryX=0.404;entryY=0;entryDx=0;entryDy=0;entryPerimeter=0;" edge="1" parent="1" source="-bwylKkLOB3QHr3YSKQO-70" target="-bwylKkLOB3QHr3YSKQO-78">
          <mxGeometry relative="1" as="geometry" />
        </mxCell>
        <mxCell id="-bwylKkLOB3QHr3YSKQO-87" style="edgeStyle=orthogonalEdgeStyle;rounded=0;orthogonalLoop=1;jettySize=auto;html=1;" edge="1" parent="1" source="-bwylKkLOB3QHr3YSKQO-83" target="-bwylKkLOB3QHr3YSKQO-86">
          <mxGeometry relative="1" as="geometry" />
        </mxCell>
        <mxCell id="-bwylKkLOB3QHr3YSKQO-83" value="&quot;백업이 완료되었습니다.\n프로그램을 종료합니다.&quot; 출력" style="shape=parallelogram;perimeter=parallelogramPerimeter;whiteSpace=wrap;html=1;fixedSize=1;" vertex="1" parent="1">
          <mxGeometry x="134.99" y="1720" width="185" height="60" as="geometry" />
        </mxCell>
        <mxCell id="-bwylKkLOB3QHr3YSKQO-86" value="프로그램 종료" style="ellipse;whiteSpace=wrap;html=1;" vertex="1" parent="1">
          <mxGeometry x="212.38" y="1810" width="120" height="80" as="geometry" />
        </mxCell>
      </root>
    </mxGraphModel>
  </diagram>
</mxfile>
